<?xml version="1.0" encoding="UTF-8" standalone="no"?>
<!-- Created with Inkscape (http://www.inkscape.org/) -->

<svg
   width="295.20901mm"
   height="312.87347mm"
   viewBox="0 0 295.20903 312.87345"
   version="1.1"
   id="svg1"
   inkscape:version="1.4.2 (ebf0e940d0, 2025-05-08)"
   sodipodi:docname="TeraPanel.svg"
   xml:space="preserve"
   inkscape:export-filename="TeraPanel.png"
   inkscape:export-xdpi="80"
   inkscape:export-ydpi="80"
   xmlns:inkscape="http://www.inkscape.org/namespaces/inkscape"
   xmlns:sodipodi="http://sodipodi.sourceforge.net/DTD/sodipodi-0.dtd"
   xmlns:xlink="http://www.w3.org/1999/xlink"
   xmlns="http://www.w3.org/2000/svg"
   xmlns:svg="http://www.w3.org/2000/svg"><sodipodi:namedview
     id="namedview1"
     pagecolor="#ffffff"
     bordercolor="#000000"
     borderopacity="0.25"
     inkscape:showpageshadow="2"
     inkscape:pageopacity="0.0"
     inkscape:pagecheckerboard="0"
     inkscape:deskcolor="#d1d1d1"
     inkscape:document-units="mm"
     showguides="true"
     inkscape:zoom="0.35355339"
     inkscape:cx="80.610173"
     inkscape:cy="873.98398"
     inkscape:window-width="2560"
     inkscape:window-height="1363"
     inkscape:window-x="0"
     inkscape:window-y="0"
     inkscape:window-maximized="1"
     inkscape:current-layer="g74"
     inkscape:export-bgcolor="#ffffffff" /><defs
     id="defs1"><linearGradient
       id="linearGradient2"
       inkscape:collect="always"><stop
         style="stop-color:#0090ff;stop-opacity:1;"
         offset="0"
         id="stop2" /><stop
         style="stop-color:#00ff10;stop-opacity:1;"
         offset="0.99999994"
         id="stop4" /></linearGradient><inkscape:path-effect
       effect="dashed_stroke"
       message=""
       id="path-effect73"
       is_visible="true"
       lpeversion="1"
       numberdashes="2"
       holefactor="0"
       splitsegments="true"
       halfextreme="true"
       unifysegment="true" /><inkscape:path-effect
       center_point="314.2695,206.841"
       end_point="314.27,256.12"
       start_point="314.269,157.562"
       effect="slice"
       id="path-effect63"
       is_visible="true"
       lpeversion="1.2"
       lpesatellites=""
       allow_transforms="true" /><filter
       id="selectable_hidder_filter"
       width="1"
       height="1"
       x="0"
       y="0"
       style="color-interpolation-filters:sRGB"
       inkscape:label="LPE boolean visibility"><feComposite
         id="boolops_hidder_primitive"
         result="composite1"
         operator="arithmetic"
         in2="SourceGraphic"
         in="BackgroundImage"
         k1="0"
         k2="0"
         k3="0"
         k4="0" /></filter><inkscape:path-effect
       effect="bool_op"
       operand-path=""
       id="path-effect62"
       is_visible="true"
       lpeversion="1"
       operation="union"
       swap-operands="false"
       filltype-this="from-curve"
       filter=""
       filltype-operand="from-curve" /><rect
       x="756.37189"
       y="127.47841"
       width="3601.6899"
       height="362.03867"
       id="rect1" /><filter
       id="mask-powermask-path-effect74_inverse"
       inkscape:label="filtermask-powermask-path-effect74"
       style="color-interpolation-filters:sRGB"
       height="100"
       width="100"
       x="-50"
       y="-50"><feColorMatrix
         id="mask-powermask-path-effect74_primitive1"
         values="1"
         type="saturate"
         result="fbSourceGraphic" /><feColorMatrix
         id="mask-powermask-path-effect74_primitive2"
         values="-1 0 0 0 1 0 -1 0 0 1 0 0 -1 0 1 0 0 0 1 0 "
         in="fbSourceGraphic" /></filter><mask
       maskUnits="userSpaceOnUse"
       id="mask74"><path
         id="path74"
         style="fill:#ffffff;stroke-width:0.312663"
         d="m 162.10045,99.731077 v 95.385973 h 123.62963 v -53.97431 h 13.35918 V 113.88011 H 285.73008 V 99.731077 Z" /></mask><linearGradient
       inkscape:collect="always"
       xlink:href="#linearGradient2"
       id="linearGradient3"
       x1="208.5921"
       y1="179.76077"
       x2="435.73718"
       y2="443.60953"
       gradientUnits="userSpaceOnUse"
       gradientTransform="translate(8.0319785e-6)" /></defs><g
     id="g74"
     transform="matrix(0.81061266,0,0,0.81061266,-112.94519,-90.349873)"><rect
       style="display:none;opacity:0.348064;fill:url(#linearGradient3);stroke-width:0.347615"
       id="rect2"
       width="364.18011"
       height="385.97159"
       x="139.33311"
       y="111.45875" /><g
       id="g6"
       transform="translate(1.3055968,1.9583953)"><g
         id="g39"
         transform="matrix(1.7338986,0,0,1.7338986,231.99027,244.14219)">
	<path
   style="fill:#b7d5e5"
   d="m 71.59,68.58 h -6.42 -6.42 c 0,20.36 -4.21,28.52 -4.21,28.52 H 75.8 c 0,-0.01 -4.21,-8.17 -4.21,-28.52 z"
   id="path1-6" />
	<path
   style="fill:#2f7889"
   d="m 39.41,98.17 c -0.07,-1.14 0.1,-2.64 0.1,-2.64 0,0 45.24,-1.88 48.83,-0.09 0,0 0.48,1.66 0.15,2.74 -0.79,2.53 -10.99,4.8 -24.55,4.8 -13.56,0 -24.37,-2.16 -24.53,-4.81 z"
   id="path2-7" />
	<ellipse
   style="fill:#b7d5e5"
   cx="64"
   cy="95.959999"
   rx="24.549999"
   ry="4.8000002"
   id="ellipse2" />
	<path
   style="fill:#69a1ba"
   d="m 71.59,68.58 h -6.42 -6.42 c 0,6.64 -0.45,11.98 -1.05,16.16 l 15.31,2.3 C 72.23,82.57 71.59,76.5 71.59,68.58 Z"
   id="path3-5" />
	<path
   style="fill:#eeeeee"
   d="m 55.49,91.46 c 0,0 -3.72,1.52 -2.88,2.63 1.3,1.74 4.93,2.83 13.71,3.42 6.17,0.41 3.75,2.13 -2.05,2.48 -4.07,0.24 -23.58,0.4 -24.74,-3.67 -0.94,-3.31 13.18,-4.86 15.96,-4.86 z"
   id="path4-3" />
	
	
	
	
	<g
   id="g38">
		<path
   style="fill:#69a1ba"
   d="M 113.46,79.66 H 14.54 c -1.9,0 -3.44,-1.54 -3.44,-3.44 v -67 c 0,-1.9 1.54,-3.44 3.44,-3.44 h 98.91 c 1.9,0 3.44,1.54 3.44,3.44 v 67 c 0.01,1.9 -1.53,3.44 -3.43,3.44 z"
   id="path36" />
		<path
   style="fill:#b7d5e5"
   d="M 113.46,77.89 H 14.54 c -1.9,0 -3.44,-1.54 -3.44,-3.44 v -67 c 0,-1.9 1.54,-3.44 3.44,-3.44 h 98.91 c 1.9,0 3.44,1.54 3.44,3.44 v 67 c 0.01,1.89 -1.53,3.44 -3.43,3.44 z"
   id="path37" />
		<radialGradient
   id="SVGID_1_"
   cx="46.465401"
   cy="-5.1763"
   r="60.973099"
   gradientUnits="userSpaceOnUse">
			<stop
   offset="0"
   style="stop-color:#2F7889"
   id="stop37" />
			<stop
   offset="1"
   style="stop-color:#424242"
   id="stop38" />
		</radialGradient>
		<rect
   x="15.25"
   y="9.3800001"
   style="fill:url(#SVGID_1_)"
   width="97.5"
   height="63.119999"
   id="rect38" />
	</g>
	
		<line
   style="fill:none;stroke:#eeeeee;stroke-width:3.0142;stroke-linecap:round;stroke-miterlimit:10"
   x1="16.389999"
   y1="6.9899998"
   x2="27.58"
   y2="6.9899998"
   id="line38" />
</g><g
         id="g11"
         transform="matrix(2.4580253,0,0,2.4580253,-274.84443,-109.75281)"
         style="mix-blend-mode:normal;fill-rule:nonzero;stroke-width:0.77378;stroke-miterlimit:10;stroke-dasharray:none;stroke-dashoffset:0"
         mask="url(#mask74)"><path
           d="m 287.2313,170.6865 c 0.0913,0.3258 2.2672,8.2857 -3.232,15.6575 -3.725,4.9893 -10.2147,11.3653 -26.7984,12.796 -8.1201,0.6987 -15.3479,-1.3959 -20.5439,-4.597 0.0766,0.0472 0.1486,0.0967 0.226,0.1431 l -0.0743,-0.0449 c -4.8276,-2.1797 -10.949,-5.5519 -15.0137,-11.1966 0,0 -2.1875,4.5638 -11.9951,4.7541 -12.3937,0.2445 -17.397,-6.6259 -18.0377,-11.8048 -0.6507,-5.2532 0.9541,-11.2747 11.428,-13.0513 8.7685,-1.4834 13.535,1.1653 14.8535,2.0652 l 0.1022,0.1168 c 0.9664,-2.9891 2.5774,-4.3657 2.5774,-4.3657 l -0.1323,-0.0472 c -3.6909,-1.385 -8.5472,-3.5973 -14.4898,-7.1319 -12.4401,-7.4012 -12.3171,-20.4572 -8.8761,-25.1517 3.5618,-4.8532 14.113,-10.9506 29.0184,-2.6502 8.3878,4.6674 12.6327,11.8566 14.7428,17.2444 l 0.4457,-0.1764 c 0.5749,-0.3312 1.2017,-0.6577 1.8726,-0.9664 l 0.0874,-0.1532 c -3.2692,-7.6806 -8.2044,-23.4735 5.8467,-24.6922 13.3632,-1.1591 12.2133,14.9433 11.1355,21.7897 l 0.1052,0.0163 c 1.7263,0.1214 3.4797,0.3745 5.2323,0.7861 -0.0387,-0.0805 -2.0319,-4.2635 0.5277,-10.357 2.0057,-4.7696 10.9893,-16.2046 18.2868,-10.1288 7.6983,6.4115 3.5192,13.6634 -0.4875,18.1111 -3.4712,3.8511 -7.4639,5.425 -9.2753,6.1198 l 0.0511,0.0325 c 0.4457,0.2801 0.8914,0.5718 1.3316,0.8829 12.2529,8.623 11.2021,26.4757 11.2021,26.4757 l -0.0271,-0.1269 c -0.0464,-0.1996 -0.0797,-0.3157 -0.0898,-0.349 z M 272.9234,142.712 c 0.7405,0.3908 1.4647,0.8133 2.1689,1.2644 m -14.7522,-4.3216 c -0.1578,0.8589 -0.3381,1.7132 -0.5354,2.5628 m -14.4604,4.0468 c -0.7367,-1.3928 -1.3967,-2.8274 -2.0103,-4.2782 m -25.8768,29.0918 c -0.0782,-1.717 0.082,-3.4502 0.5525,-5.1061 m -10.1435,-3.0681 m -1.5638,25.069"
           fill="#1b75bb"
           stroke="#000000"
           stroke-linecap="round"
           stroke-linejoin="round"
           id="path1-3" /><path
           d="m 206.3658,188.0718 c -9.8982,-0.9595 -14.0255,-7.0058 -14.6036,-11.6779 -0.6507,-5.2532 0.9541,-11.2747 11.428,-13.0513 1.5236,-0.2585 2.9265,-0.3916 4.2086,-0.431 l 0.0991,0.006 c -4.1754,8.0751 -4.57,17.5725 -1.1955,25.0542 z"
           fill="#f1f1f2"
           stroke="#000000"
           stroke-linecap="butt"
           stroke-linejoin="miter"
           id="path2" /><path
           d="m 204.1667,152.7139 c -10.4824,-7.5428 -10.1938,-19.449 -6.9423,-23.8866 3.3922,-4.6241 13.138,-10.3772 26.9446,-3.7273 l -0.1385,0.0456 c -7.9243,2.4808 -14.78,8.7213 -17.9982,17.431 -1.2334,3.3443 -1.8215,6.7613 -1.8308,10.1002 z"
           fill="#f1f1f2"
           stroke="#000000"
           stroke-linecap="butt"
           stroke-linejoin="miter"
           id="path3" /><path
           d="m 239.9185,129.7968 c -0.5834,-6.0718 1.1893,-11.6601 9.3217,-12.3642 8.2052,-0.7103 10.9398,5.0853 11.5773,11.2508 l -0.0626,-0.0635 c -6.8573,-2.6602 -14.3482,-2.0892 -20.8031,1.081 z"
           fill="#f1f1f2"
           stroke="#000000"
           stroke-linecap="butt"
           stroke-linejoin="miter"
           id="path4" /><path
           d="m 276.7551,118.4981 c 2.5527,-1.0655 5.2625,-1.0477 7.7703,1.0423 4.9306,4.1095 4.9894,8.5611 3.3389,12.4006 l -0.0836,0.006 c -2.0079,-5.5426 -5.7863,-10.3385 -11.0372,-13.4213 z"
           fill="#f1f1f2"
           stroke="#000000"
           stroke-linecap="butt"
           stroke-linejoin="miter"
           id="path5" /><path
           d="m 276.4843,159.8319 c 6.7481,4.9143 9.1291,5.213 10.7432,10.8399 0,0 2.3871,8.1456 -3.2275,15.6729 -3.7257,4.9894 -10.2147,11.3646 -26.7983,12.7961 -16.5814,1.4268 -29.461,-8.7809 -28.8559,-16.3175 0.804,-10.0321 8.0752,-8.7221 21.9963,-17.3056 13.9195,-8.579 14.1122,-18.7696 14.1122,-18.7696 0,0 7.3393,9.6614 12.03,13.0838 z"
           fill="#e6e7e8"
           stroke="#000000"
           stroke-linecap="butt"
           stroke-linejoin="miter"
           id="path6" /><g
           stroke="none"
           stroke-linecap="butt"
           stroke-linejoin="miter"
           id="g8"><path
             d="m 253.4248,174.4889 c 0.1115,0.5285 -0.2244,1.0508 -0.7536,1.1645 -0.5316,0.1161 -1.0539,-0.2352 -1.1638,-0.7506 -0.0572,-0.2584 -0.0116,-0.5192 0.1292,-0.7374 0.1432,-0.2197 0.3614,-0.3729 0.6222,-0.4286 0.0704,-0.0147 0.1416,-0.0233 0.2135,-0.0233 0.4535,0 0.8543,0.3258 0.9525,0.7754 z"
             fill="#ffffff"
             id="path7" /><path
             d="m 254.9322,174.1654 c 0.2901,1.3572 -0.5765,2.7005 -1.936,2.9953 -0.1765,0.038 -0.3552,0.0573 -0.5339,0.0573 -1.1808,0 -2.2169,-0.838 -2.4614,-1.9878 -0.1455,-0.6585 -0.0256,-1.3333 0.3389,-1.8974 0.366,-0.5671 0.9301,-0.9579 1.5893,-1.101 1.3247,-0.2902 2.7137,0.5996 3.0031,1.9336 z m -3.4248,0.7382 c 0.1091,0.5154 0.6322,0.8659 1.163,0.7506 0.53,-0.1138 0.8659,-0.6361 0.7544,-1.1646 -0.0982,-0.4495 -0.4983,-0.7753 -0.9525,-0.7753 -0.0712,0 -0.1424,0.008 -0.2135,0.0232 -0.2608,0.0557 -0.479,0.2082 -0.6222,0.4287 -0.1408,0.2182 -0.1864,0.479 -0.1292,0.7374 z"
             fill="#231f20"
             id="path8" /></g><g
           stroke="none"
           stroke-linecap="butt"
           stroke-linejoin="miter"
           id="g10"><path
             d="m 277.3602,173.014 c 0.1107,0.5278 -0.2244,1.0508 -0.7537,1.1654 -0.5308,0.1153 -1.0531,-0.2353 -1.1637,-0.7514 -0.0565,-0.2584 -0.0116,-0.5192 0.1292,-0.7374 0.1439,-0.2197 0.3621,-0.373 0.6221,-0.4287 0.0712,-0.0154 0.1424,-0.0232 0.2136,-0.0232 0.4542,0 0.855,0.3258 0.9525,0.7753 z"
             fill="#ffffff"
             id="path9" /><path
             d="m 278.8675,172.6891 c 0.291,1.3587 -0.5764,2.702 -1.936,2.996 -0.1764,0.0372 -0.3551,0.0565 -0.5339,0.0565 -1.1808,0 -2.2161,-0.8372 -2.4614,-1.9878 -0.1447,-0.6585 -0.0255,-1.3332 0.3389,-1.8973 0.366,-0.5672 0.9301,-0.9587 1.5902,-1.1011 1.3247,-0.2902 2.7136,0.5997 3.0022,1.9337 z m -3.4255,0.7381 c 0.1107,0.5162 0.6337,0.8675 1.163,0.7506 0.53,-0.1137 0.8659,-0.6368 0.7544,-1.1645 -0.0975,-0.4496 -0.4975,-0.7754 -0.9525,-0.7754 -0.0704,0 -0.1416,0.008 -0.2135,0.0233 -0.26,0.0557 -0.4782,0.2089 -0.6222,0.4286 -0.1408,0.2182 -0.1857,0.479 -0.1292,0.7374 z"
             fill="#231f20"
             id="path10" /></g><path
           d="m 276.3945,178.9033 c 0,0 -1.3169,2.8436 -9.2544,3.9997 -7.939,1.1622 -12.7929,-2.2796 -12.7929,-2.2796"
           fill="none"
           stroke="#231f20"
           stroke-linecap="round"
           stroke-linejoin="miter"
           id="path11" /></g></g></g></svg>
